<?xml version="1.0" encoding="UTF-8"?>
<svg xmlns="http://www.w3.org/2000/svg" width="1500" height="980" viewBox="0 0 1500 980">
  <defs>
    <marker id="arrow" markerWidth="10" markerHeight="8" refX="9" refY="4" orient="auto" markerUnits="strokeWidth">
      <path d="M 0 0 L 10 4 L 0 8 z" fill="#17202a"/>
    </marker>
    <style>
      .page-title { font: 700 28px Arial, sans-serif; fill: #17202a; }
      .subtitle { font: 400 14px Arial, sans-serif; fill: #5c6670; }
      .title { font: 700 15px Arial, sans-serif; fill: #17202a; }
      .body { font: 400 12px Arial, sans-serif; fill: #17202a; }
      .strong { font-weight: 700; }
      .note { font: 400 11px Arial, sans-serif; fill: #5c6670; }
      .section { font: 700 18px Arial, sans-serif; fill: #17202a; }
    </style>
  </defs>
  <rect width="100%" height="100%" fill="#f6f8fb"/>
  <text x="40" y="44" class="page-title">API Use Case Diagram</text>
  <text x="40" y="68" class="subtitle">React client route groups, authentication middleware, admin authorization, and AI service calls.</text>
  
  
    <rect x="70" y="440" width="230" height="100" rx="8" fill="#dcecff" stroke="#bcc7d4" stroke-width="1.4"/>
    <text x="84" y="466" class="title">React Client</text>
    <line x1="70" y1="476" x2="300" y2="476" stroke="#bcc7d4" stroke-width="1"/>
    <text x="84" y="488" class="body">Pages and service clients</text>
<text x="84" y="506" class="body">authFetch wrapper</text>
  
  
    <rect x="390" y="120" width="275" height="150" rx="8" fill="#def7e8" stroke="#bcc7d4" stroke-width="1.4"/>
    <text x="404" y="146" class="title">/api/auth</text>
    <line x1="390" y1="156" x2="665" y2="156" stroke="#bcc7d4" stroke-width="1"/>
    <text x="404" y="168" class="body">POST /register</text>
<text x="404" y="186" class="body">POST /login</text>
<text x="404" y="204" class="body">POST /refresh-token</text>
<text x="404" y="222" class="body">POST /logout</text>
<text x="404" y="240" class="body">GET /me</text>
  
  
    <rect x="390" y="330" width="275" height="165" rx="8" fill="#def7e8" stroke="#bcc7d4" stroke-width="1.4"/>
    <text x="404" y="356" class="title">/api/users</text>
    <line x1="390" y1="366" x2="665" y2="366" stroke="#bcc7d4" stroke-width="1"/>
    <text x="404" y="378" class="body">POST /assessment</text>
<text x="404" y="396" class="body">GET /assessment</text>
<text x="404" y="414" class="body">GET /</text>
<text x="404" y="432" class="body">GET /:id</text>
<text x="404" y="450" class="body">PUT /:id</text>
<text x="404" y="468" class="body">DELETE /:id</text>
  
  
    <rect x="390" y="560" width="275" height="150" rx="8" fill="#def7e8" stroke="#bcc7d4" stroke-width="1.4"/>
    <text x="404" y="586" class="title">/api/reviews</text>
    <line x1="390" y1="596" x2="665" y2="596" stroke="#bcc7d4" stroke-width="1"/>
    <text x="404" y="608" class="body">GET /public</text>
<text x="404" y="626" class="body">POST /</text>
<text x="404" y="644" class="body">GET /mine</text>
<text x="404" y="662" class="body">GET /</text>
<text x="404" y="680" class="body">DELETE /:id</text>
  
  
    <rect x="390" y="770" width="275" height="135" rx="8" fill="#def7e8" stroke="#bcc7d4" stroke-width="1.4"/>
    <text x="404" y="796" class="title">/api/chat</text>
    <line x1="390" y1="806" x2="665" y2="806" stroke="#bcc7d4" stroke-width="1"/>
    <text x="404" y="818" class="body">POST /messages</text>
<text x="404" y="836" class="body">GET /sessions</text>
<text x="404" y="854" class="body">GET /sessions/:id/messages</text>
<text x="404" y="872" class="body">DELETE /sessions/:id</text>
  
  
    <rect x="775" y="330" width="260" height="120" rx="8" fill="#fff1cf" stroke="#bcc7d4" stroke-width="1.4"/>
    <text x="789" y="356" class="title">authenticate</text>
    <line x1="775" y1="366" x2="1035" y2="366" stroke="#bcc7d4" stroke-width="1"/>
    <text x="789" y="378" class="body">Required for logout, me</text>
<text x="789" y="396" class="body">assessment routes</text>
<text x="789" y="414" class="body">student reviews</text>
<text x="789" y="432" class="body">chat routes</text>
  
  
    <rect x="775" y="545" width="260" height="115" rx="8" fill="#fff1cf" stroke="#bcc7d4" stroke-width="1.4"/>
    <text x="789" y="571" class="title">authorize('admin')</text>
    <line x1="775" y1="581" x2="1035" y2="581" stroke="#bcc7d4" stroke-width="1"/>
    <text x="789" y="593" class="body">Required for user admin</text>
<text x="789" y="611" class="body">review moderation</text>
<text x="789" y="629" class="body">admin insights</text>
  
  
    <rect x="1145" y="360" width="260" height="145" rx="8" fill="#ffe2df" stroke="#bcc7d4" stroke-width="1.4"/>
    <text x="1159" y="386" class="title">Flask AI Service</text>
    <line x1="1145" y1="396" x2="1405" y2="396" stroke="#bcc7d4" stroke-width="1"/>
    <text x="1159" y="408" class="body">POST /api/predict</text>
<text x="1159" y="426" class="body">POST /api/summary</text>
<text x="1159" y="444" class="body">POST /api/chat</text>
  
  
    <rect x="1145" y="610" width="260" height="120" rx="8" fill="#daf6f4" stroke="#bcc7d4" stroke-width="1.4"/>
    <text x="1159" y="636" class="title">MongoDB</text>
    <line x1="1145" y1="646" x2="1405" y2="646" stroke="#bcc7d4" stroke-width="1"/>
    <text x="1159" y="658" class="body">users</text>
<text x="1159" y="676" class="body">reviews</text>
<text x="1159" y="694" class="body">chat_sessions</text>
<text x="1159" y="712" class="body">chat_messages</text>
  

  
    <path d="M 300 470 L 390 195" fill="none" stroke="#17202a" stroke-width="1.4"  marker-end="url(#arrow)"/>
    
  
  
    <path d="M 300 485 L 390 405" fill="none" stroke="#17202a" stroke-width="1.4"  marker-end="url(#arrow)"/>
    
  
  
    <path d="M 300 500 L 390 635" fill="none" stroke="#17202a" stroke-width="1.4"  marker-end="url(#arrow)"/>
    
  
  
    <path d="M 300 515 L 390 837" fill="none" stroke="#17202a" stroke-width="1.4"  marker-end="url(#arrow)"/>
    
  
  
    <path d="M 665 405 L 775 390" fill="none" stroke="#17202a" stroke-width="1.4"  marker-end="url(#arrow)"/>
    
  
  
    <path d="M 665 635 L 775 390" fill="none" stroke="#17202a" stroke-width="1.4"  marker-end="url(#arrow)"/>
    
  
  
    <path d="M 665 837 L 775 390" fill="none" stroke="#17202a" stroke-width="1.4"  marker-end="url(#arrow)"/>
    
  
  
    <path d="M 900 450 L 900 545" fill="none" stroke="#17202a" stroke-width="1.4"  marker-end="url(#arrow)"/>
    
  
  
    <path d="M 1035 395 L 1145 425" fill="none" stroke="#17202a" stroke-width="1.4" stroke-dasharray="6 5" marker-end="url(#arrow)"/>
    <text x="1090" y="402" text-anchor="middle" class="note">assessment/chat</text>
  
  
    <path d="M 1035 605 L 1145 670" fill="none" stroke="#17202a" stroke-width="1.4" stroke-dasharray="6 5" marker-end="url(#arrow)"/>
    <text x="1090" y="629.5" text-anchor="middle" class="note">admin data</text>
  
  
    <path d="M 665 195 L 1145 670" fill="none" stroke="#17202a" stroke-width="1.4" stroke-dasharray="6 5" marker-end="url(#arrow)"/>
    <text x="905" y="424.5" text-anchor="middle" class="note">auth/session data</text>
  
  
</svg>