<?xml version="1.0" encoding="UTF-8"?>
<svg xmlns="http://www.w3.org/2000/svg" width="1500" height="1020" viewBox="0 0 1500 1020">
  <defs>
    <marker id="arrow" markerWidth="10" markerHeight="8" refX="9" refY="4" orient="auto" markerUnits="strokeWidth">
      <path d="M 0 0 L 10 4 L 0 8 z" fill="#17202a"/>
    </marker>
    <style>
      .page-title { font: 700 28px Arial, sans-serif; fill: #17202a; }
      .subtitle { font: 400 14px Arial, sans-serif; fill: #5c6670; }
      .title { font: 700 15px Arial, sans-serif; fill: #17202a; }
      .body { font: 400 12px Arial, sans-serif; fill: #17202a; }
      .strong { font-weight: 700; }
      .note { font: 400 11px Arial, sans-serif; fill: #5c6670; }
      .section { font: 700 18px Arial, sans-serif; fill: #17202a; }
    </style>
  </defs>
  <rect width="100%" height="100%" fill="#f6f8fb"/>
  <text x="40" y="44" class="page-title">Use Case Diagram</text>
  <text x="40" y="68" class="subtitle">Primary user goals for guests, registered students, admins, and the AI service.</text>
  
  
    <circle cx="130" cy="165" r="18" fill="#dcecff" stroke="#bcc7d4" stroke-width="1.4"/>
    <line x1="130" y1="183" x2="130" y2="243" stroke="#17202a" stroke-width="2"/>
    <line x1="102" y1="207" x2="158" y2="207" stroke="#17202a" stroke-width="2"/>
    <line x1="130" y1="243" x2="106" y2="277" stroke="#17202a" stroke-width="2"/>
    <line x1="130" y1="243" x2="154" y2="277" stroke="#17202a" stroke-width="2"/>
    <text x="130" y="305" text-anchor="middle" class="title">Guest</text>
  
  
    <circle cx="130" cy="460" r="18" fill="#dcecff" stroke="#bcc7d4" stroke-width="1.4"/>
    <line x1="130" y1="478" x2="130" y2="538" stroke="#17202a" stroke-width="2"/>
    <line x1="102" y1="502" x2="158" y2="502" stroke="#17202a" stroke-width="2"/>
    <line x1="130" y1="538" x2="106" y2="572" stroke="#17202a" stroke-width="2"/>
    <line x1="130" y1="538" x2="154" y2="572" stroke="#17202a" stroke-width="2"/>
    <text x="130" y="600" text-anchor="middle" class="title">Student</text>
  
  
    <circle cx="130" cy="755" r="18" fill="#dcecff" stroke="#bcc7d4" stroke-width="1.4"/>
    <line x1="130" y1="773" x2="130" y2="833" stroke="#17202a" stroke-width="2"/>
    <line x1="102" y1="797" x2="158" y2="797" stroke="#17202a" stroke-width="2"/>
    <line x1="130" y1="833" x2="106" y2="867" stroke="#17202a" stroke-width="2"/>
    <line x1="130" y1="833" x2="154" y2="867" stroke="#17202a" stroke-width="2"/>
    <text x="130" y="895" text-anchor="middle" class="title">Admin</text>
  
  
    <rect x="1180" y="180" width="230" height="100" rx="8" fill="#ffe2df" stroke="#bcc7d4" stroke-width="1.4"/>
    <text x="1194" y="206" class="title">AI Service</text>
    <line x1="1180" y1="216" x2="1410" y2="216" stroke="#bcc7d4" stroke-width="1"/>
    <text x="1194" y="228" class="body">Predict careers</text>
<text x="1194" y="246" class="body">Generate summaries</text>
<text x="1194" y="264" class="body">Reply to chat</text>
  
  
    <rect x="1180" y="520" width="230" height="100" rx="8" fill="#daf6f4" stroke="#bcc7d4" stroke-width="1.4"/>
    <text x="1194" y="546" class="title">MongoDB</text>
    <line x1="1180" y1="556" x2="1410" y2="556" stroke="#bcc7d4" stroke-width="1"/>
    <text x="1194" y="568" class="body">Users</text>
<text x="1194" y="586" class="body">Reviews</text>
<text x="1194" y="604" class="body">Chat sessions</text>
<text x="1194" y="622" class="body">Chat messages</text>
  

  <rect x="300" y="100" width="790" height="235" rx="12" fill="#ffffff" stroke="#bcc7d4"/>
  <text x="325" y="130" class="section">Public use cases</text>
  
    <ellipse cx="430" cy="180" rx="90" ry="27" fill="#dcecff" stroke="#bcc7d4" stroke-width="1.4"/>
    <text x="430" y="185" text-anchor="middle" class="body strong">View home</text>
  
  
    <ellipse cx="665" cy="180" rx="105" ry="27" fill="#dcecff" stroke="#bcc7d4" stroke-width="1.4"/>
    <text x="665" y="185" text-anchor="middle" class="body strong">View methodology</text>
  
  
    <ellipse cx="900" cy="180" rx="90" ry="27" fill="#dcecff" stroke="#bcc7d4" stroke-width="1.4"/>
    <text x="900" y="185" text-anchor="middle" class="body strong">View about</text>
  
  
    <ellipse cx="430" cy="265" rx="105" ry="27" fill="#dcecff" stroke="#bcc7d4" stroke-width="1.4"/>
    <text x="430" y="270" text-anchor="middle" class="body strong">View public reviews</text>
  
  
    <ellipse cx="665" cy="265" rx="90" ry="27" fill="#dcecff" stroke="#bcc7d4" stroke-width="1.4"/>
    <text x="665" y="270" text-anchor="middle" class="body strong">Create account</text>
  
  
    <ellipse cx="900" cy="265" rx="75" ry="27" fill="#dcecff" stroke="#bcc7d4" stroke-width="1.4"/>
    <text x="900" y="270" text-anchor="middle" class="body strong">Log in</text>
  

  <rect x="300" y="380" width="790" height="275" rx="12" fill="#ffffff" stroke="#bcc7d4"/>
  <text x="325" y="410" class="section">Student use cases</text>
  
    <ellipse cx="430" cy="460" rx="115" ry="27" fill="#def7e8" stroke="#bcc7d4" stroke-width="1.4"/>
    <text x="430" y="465" text-anchor="middle" class="body strong">Take assessment</text>
  
  
    <ellipse cx="705" cy="460" rx="125" ry="27" fill="#def7e8" stroke="#bcc7d4" stroke-width="1.4"/>
    <text x="705" y="465" text-anchor="middle" class="body strong">Generate predictions</text>
  
  
    <ellipse cx="955" cy="460" rx="90" ry="27" fill="#def7e8" stroke="#bcc7d4" stroke-width="1.4"/>
    <text x="955" y="465" text-anchor="middle" class="body strong">View results</text>
  
  
    <ellipse cx="430" cy="545" rx="112.5" ry="27" fill="#def7e8" stroke="#bcc7d4" stroke-width="1.4"/>
    <text x="430" y="550" text-anchor="middle" class="body strong">View career detail</text>
  
  
    <ellipse cx="705" cy="545" rx="125" ry="27" fill="#def7e8" stroke="#bcc7d4" stroke-width="1.4"/>
    <text x="705" y="550" text-anchor="middle" class="body strong">Chat with counselor</text>
  
  
    <ellipse cx="955" cy="545" rx="115" ry="27" fill="#def7e8" stroke="#bcc7d4" stroke-width="1.4"/>
    <text x="955" y="550" text-anchor="middle" class="body strong">Submit review</text>
  
  
    <ellipse cx="560" cy="625" rx="105" ry="27" fill="#def7e8" stroke="#bcc7d4" stroke-width="1.4"/>
    <text x="560" y="630" text-anchor="middle" class="body strong">Manage chat history</text>
  
  
    <ellipse cx="825" cy="625" rx="90" ry="27" fill="#def7e8" stroke="#bcc7d4" stroke-width="1.4"/>
    <text x="825" y="630" text-anchor="middle" class="body strong">View profile</text>
  

  <rect x="300" y="710" width="790" height="210" rx="12" fill="#ffffff" stroke="#bcc7d4"/>
  <text x="325" y="740" class="section">Admin use cases</text>
  
    <ellipse cx="430" cy="790" rx="87.5" ry="27" fill="#fff1cf" stroke="#bcc7d4" stroke-width="1.4"/>
    <text x="430" y="795" text-anchor="middle" class="body strong">Admin login</text>
  
  
    <ellipse cx="665" cy="790" rx="102.5" ry="27" fill="#fff1cf" stroke="#bcc7d4" stroke-width="1.4"/>
    <text x="665" y="795" text-anchor="middle" class="body strong">View overview</text>
  
  
    <ellipse cx="900" cy="790" rx="102.5" ry="27" fill="#fff1cf" stroke="#bcc7d4" stroke-width="1.4"/>
    <text x="900" y="795" text-anchor="middle" class="body strong">Manage users</text>
  
  
    <ellipse cx="545" cy="870" rx="107.5" ry="27" fill="#fff1cf" stroke="#bcc7d4" stroke-width="1.4"/>
    <text x="545" y="875" text-anchor="middle" class="body strong">Manage reviews</text>
  
  
    <ellipse cx="805" cy="870" rx="107.5" ry="27" fill="#fff1cf" stroke="#bcc7d4" stroke-width="1.4"/>
    <text x="805" y="875" text-anchor="middle" class="body strong">View insights</text>
  

  
    <path d="M 190 180 L 340 180" fill="none" stroke="#17202a" stroke-width="1.4"  marker-end="url(#arrow)"/>
    
  
  
    <path d="M 190 180 L 565 180" fill="none" stroke="#17202a" stroke-width="1.4"  marker-end="url(#arrow)"/>
    
  
  
    <path d="M 190 180 L 810 180" fill="none" stroke="#17202a" stroke-width="1.4"  marker-end="url(#arrow)"/>
    
  
  
    <path d="M 190 180 L 330 265" fill="none" stroke="#17202a" stroke-width="1.4"  marker-end="url(#arrow)"/>
    
  
  
    <path d="M 190 180 L 575 265" fill="none" stroke="#17202a" stroke-width="1.4"  marker-end="url(#arrow)"/>
    
  
  
    <path d="M 190 180 L 825 265" fill="none" stroke="#17202a" stroke-width="1.4"  marker-end="url(#arrow)"/>
    
  

  
    <path d="M 190 475 L 315 460" fill="none" stroke="#17202a" stroke-width="1.4"  marker-end="url(#arrow)"/>
    
  
  
    <path d="M 190 475 L 580 460" fill="none" stroke="#17202a" stroke-width="1.4"  marker-end="url(#arrow)"/>
    
  
  
    <path d="M 190 475 L 865 460" fill="none" stroke="#17202a" stroke-width="1.4"  marker-end="url(#arrow)"/>
    
  
  
    <path d="M 190 475 L 325 545" fill="none" stroke="#17202a" stroke-width="1.4"  marker-end="url(#arrow)"/>
    
  
  
    <path d="M 190 475 L 580 545" fill="none" stroke="#17202a" stroke-width="1.4"  marker-end="url(#arrow)"/>
    
  
  
    <path d="M 190 475 L 850 545" fill="none" stroke="#17202a" stroke-width="1.4"  marker-end="url(#arrow)"/>
    
  
  
    <path d="M 190 475 L 455 625" fill="none" stroke="#17202a" stroke-width="1.4"  marker-end="url(#arrow)"/>
    
  
  
    <path d="M 190 475 L 735 625" fill="none" stroke="#17202a" stroke-width="1.4"  marker-end="url(#arrow)"/>
    
  

  
    <path d="M 190 770 L 340 790" fill="none" stroke="#17202a" stroke-width="1.4"  marker-end="url(#arrow)"/>
    
  
  
    <path d="M 190 770 L 565 790" fill="none" stroke="#17202a" stroke-width="1.4"  marker-end="url(#arrow)"/>
    
  
  
    <path d="M 190 770 L 800 790" fill="none" stroke="#17202a" stroke-width="1.4"  marker-end="url(#arrow)"/>
    
  
  
    <path d="M 190 770 L 440 870" fill="none" stroke="#17202a" stroke-width="1.4"  marker-end="url(#arrow)"/>
    
  
  
    <path d="M 190 770 L 700 870" fill="none" stroke="#17202a" stroke-width="1.4"  marker-end="url(#arrow)"/>
    
  

  
    <path d="M 830 460 L 1180 230" fill="none" stroke="#17202a" stroke-width="1.4" stroke-dasharray="6 5" marker-end="url(#arrow)"/>
    <text x="1005" y="337" text-anchor="middle" class="note">predicts</text>
  
  
    <path d="M 830 545 L 1180 230" fill="none" stroke="#17202a" stroke-width="1.4" stroke-dasharray="6 5" marker-end="url(#arrow)"/>
    <text x="1005" y="379.5" text-anchor="middle" class="note">asks</text>
  
  
    <path d="M 545 460 L 1180 570" fill="none" stroke="#17202a" stroke-width="1.4" stroke-dasharray="6 5" marker-end="url(#arrow)"/>
    <text x="862.5" y="507" text-anchor="middle" class="note">stores</text>
  
  
    <path d="M 1050 545 L 1180 570" fill="none" stroke="#17202a" stroke-width="1.4" stroke-dasharray="6 5" marker-end="url(#arrow)"/>
    <text x="1115" y="549.5" text-anchor="middle" class="note">stores</text>
  
  
    <path d="M 1000 790 L 1180 570" fill="none" stroke="#17202a" stroke-width="1.4" stroke-dasharray="6 5" marker-end="url(#arrow)"/>
    <text x="1090" y="672" text-anchor="middle" class="note">admin reads/writes</text>
  
  
</svg>